<svg width="96" height="96" viewBox="0 0 96 96" fill="none" xmlns="http://www.w3.org/2000/svg">
<path d="M16 10H84L76 78L50 86L22 78L16 10Z" fill="#E7A42B"/>
<path d="M77.26 16L70.5 73.42L50 79.72V16H77.26Z" fill="#F2BF22"/>
<path d="M50 42L52 46L50 50H31.58L33.28 24H50L52 28L50 32H42.06L41.4 42H50Z" fill="#FAF9F8"/>
<path d="M49.8 65.14L50 65.08L52 70L50 73.44L49.88 73.48L33.22 68.72L32.1 56H40.14L40.7 62.54L49.8 65.14Z" fill="#EBEBEB"/>
<path d="M68.14 42L65 68.84L50 73.44V65.08L57.66 62.72L59.14 50H50V42H68.14Z" fill="white"/>
<path d="M69.84 36H61.86L61.34 32H50V24H68.26L68.6 26.52L69.84 36Z" fill="white"/>
</svg>
