<svg width="108" height="96" viewBox="0 0 108 96" fill="none" xmlns="http://www.w3.org/2000/svg">
<path d="M81.7091 34.6331C80.7939 34.3212 79.8709 34.0323 78.941 33.7666C79.0972 33.1326 79.241 32.5063 79.3687 31.891C81.4642 21.787 80.0943 13.647 75.415 10.9669C70.9286 8.39764 63.5914 11.0767 56.1812 17.4823C55.4509 18.1147 54.7368 18.7653 54.0396 19.4336C53.5729 18.9892 53.0979 18.5535 52.6149 18.1266C44.8487 11.2776 37.0644 8.39096 32.3901 11.0787C27.9077 13.656 26.5804 21.3082 28.4671 30.884C28.6548 31.8323 28.8667 32.7758 29.1027 33.7135C28.0008 34.0245 26.9375 34.3555 25.92 34.7079C16.8147 37.8611 11 42.8025 11 47.9281C11 53.2218 17.2424 58.5316 26.7259 61.7512C27.4948 62.0112 28.27 62.252 29.0509 62.4736C28.7973 63.4835 28.5721 64.5003 28.3757 65.5227C26.5771 74.9323 27.9816 82.4037 32.452 84.9646C37.0691 87.6093 44.8185 84.8912 52.364 78.3395C52.9758 77.8069 53.5742 77.2591 54.1586 76.6968C54.9136 77.4204 55.6888 78.123 56.4832 78.8036C63.7926 85.0507 71.0112 87.5733 75.4772 85.0053C80.0899 82.3529 81.5892 74.3267 79.6428 64.5617C79.4894 63.7967 79.3175 63.0355 79.1271 62.2787C79.6713 62.1186 80.2055 61.9537 80.7262 61.7822C90.5853 58.5379 97 53.2925 97 47.9281C97 42.7838 90.9975 37.809 81.7091 34.6331ZM79.5709 58.3187C79.1006 58.4732 78.6182 58.6223 78.1264 58.7675C77.0379 55.345 75.5692 51.7059 73.7716 47.9457C75.4869 44.2753 76.8992 40.6827 77.957 37.2825C78.8369 37.5354 79.6905 37.802 80.5135 38.0833C88.4719 40.8048 93.3262 44.8279 93.3262 47.9281C93.3262 51.2301 88.0835 55.5168 79.5709 58.3187ZM76.0388 65.2705C76.8995 69.5882 77.0221 73.4922 76.452 76.5443C75.9401 79.2868 74.9101 81.115 73.6362 81.8474C70.9262 83.4057 65.1303 81.3803 58.8795 76.0375C58.1405 75.4046 57.4195 74.7515 56.7171 74.0788C59.1405 71.4464 61.5623 68.3863 63.9259 64.9875C68.0835 64.6211 72.0113 64.0219 75.5732 63.204C75.7448 63.8891 75.9001 64.5781 76.0388 65.2705ZM40.3193 81.5781C37.6714 82.5068 35.5624 82.5335 34.2875 81.8034C31.5748 80.2495 30.4471 74.2503 31.9853 66.2034C32.1682 65.2525 32.3776 64.3069 32.6132 63.3675C36.1359 64.1416 40.0351 64.6982 44.2024 65.0339C46.5822 68.3596 49.0738 71.4164 51.5849 74.0932C51.0513 74.6061 50.505 75.1058 49.9466 75.592C46.6097 78.489 43.2661 80.5444 40.3193 81.5781ZM27.9145 58.2983C23.7209 56.8745 20.2578 55.0243 17.884 53.0053C15.7508 51.1911 14.6741 49.3896 14.6741 47.9281C14.6741 44.8175 19.3427 40.8502 27.1294 38.1537C28.0744 37.8267 29.0634 37.5181 30.0896 37.2285C31.166 40.7053 32.5776 44.3407 34.2811 48.0168C32.5554 51.7473 31.1237 55.4407 30.0369 58.9587C29.3241 58.7559 28.6164 58.5357 27.9145 58.2983ZM32.0727 30.1829C30.4565 21.9789 31.5298 15.7902 34.2311 14.2369C37.1081 12.5826 43.47 14.9413 50.1757 20.8554C50.613 21.2419 51.0431 21.6363 51.466 22.0383C48.9673 24.7033 46.4985 27.7374 44.1399 31.0435C40.0952 31.4158 36.2235 32.0138 32.6639 32.8149C32.4446 31.9428 32.2475 31.0649 32.0727 30.1829ZM69.1693 39.2816C68.3285 37.8391 67.4565 36.4147 66.554 35.0095C69.2979 35.3542 71.927 35.8117 74.3958 36.3709C73.6547 38.7307 72.7309 41.1975 71.6434 43.7268C70.8486 42.2288 70.0237 40.7468 69.1693 39.2816ZM54.0413 24.6463C55.7358 26.4698 57.4329 28.5055 59.1022 30.7145C55.716 30.5556 52.3241 30.5549 48.9378 30.7125C50.6087 28.5239 52.3203 26.4908 54.0413 24.6463ZM38.8163 39.3066C37.9725 40.76 37.163 42.2328 36.3885 43.7238C35.3189 41.2035 34.4034 38.7253 33.656 36.3322C36.1096 35.787 38.7263 35.3412 41.4527 35.0028C40.5401 36.4166 39.6611 37.8518 38.8163 39.3066ZM41.531 61.1129C38.7142 60.8006 36.0583 60.3778 33.6052 59.8473C34.3645 57.4114 35.3 54.8805 36.3928 52.3062C37.1705 53.7983 37.9833 55.272 38.8307 56.7261C39.7022 58.2209 40.6045 59.6851 41.531 61.1129ZM54.1428 71.4668C52.4013 69.6009 50.6645 67.5365 48.9683 65.3162C50.6151 65.3803 52.2938 65.4129 54 65.4129C55.7529 65.4129 57.4857 65.3739 59.1912 65.2985C57.5166 67.5588 55.8258 69.6263 54.1428 71.4668ZM71.678 52.1747C72.8276 54.7774 73.7965 57.295 74.5658 59.6891C72.0724 60.2543 69.3802 60.7095 66.5436 61.0475C67.4525 59.6162 68.3328 58.1671 69.1837 56.701C70.0489 55.2108 70.8805 53.7017 71.678 52.1747ZM66.0014 54.8778C64.6987 57.1256 63.3227 59.3307 61.8757 61.4896C59.2546 61.674 56.6277 61.7656 54 61.7642C51.3236 61.7642 48.7204 61.6815 46.2136 61.52C44.7289 59.366 43.3267 57.1571 42.0101 54.8979C40.6996 52.6506 39.4759 50.3547 38.3409 48.0152C39.473 45.6751 40.6934 43.3781 41.9993 41.1291L41.999 41.1294C43.3044 38.8799 44.6954 36.6804 46.169 34.5357C48.7265 34.3435 51.3491 34.2434 53.9997 34.2434C56.6623 34.2434 59.2887 34.3445 61.8455 34.538C63.3041 36.6795 64.6863 38.8714 65.9893 41.1098C67.2996 43.3538 68.536 45.6395 69.6967 47.9634C68.5479 50.3111 67.3154 52.6173 66.0014 54.8778ZM73.5801 14.1282C76.4598 15.7779 77.5798 22.4303 75.7704 31.1542C75.6549 31.7108 75.5252 32.2777 75.3841 32.8526C71.8158 32.0345 67.9414 31.4262 63.885 31.0481C61.522 27.7057 59.0733 24.6669 56.6153 22.0363C57.2595 21.4195 57.919 20.8187 58.5933 20.2344C64.9425 14.7465 70.8765 12.5796 73.5801 14.1282ZM54 40.3003C58.2412 40.3003 61.6795 43.7154 61.6795 47.9281C61.6795 52.1407 58.2412 55.5559 54 55.5559C49.7588 55.5559 46.3205 52.1407 46.3205 47.9281C46.3205 43.7154 49.7588 40.3003 54 40.3003Z" fill="#00D8FF"/>
</svg>
