<svg width="96" height="96" viewBox="0 0 96 96" fill="none" xmlns="http://www.w3.org/2000/svg">
<path d="M83 12H12V83H83V12Z" fill="#1976D2"/>
<path d="M54.383 43.5556H28.2255V49.9929H37.6073V79.0556H45.0406V49.9929H54.383V43.5556Z" fill="white"/>
<path d="M77.4659 51.6101C77.4659 51.6101 73.9416 49.2592 69.9577 49.2592C65.9738 49.2592 64.54 51.1526 64.54 53.1761C64.54 58.3985 79.097 57.8759 79.097 68.3858C79.097 84.5758 56.9016 77.3949 56.9016 77.3949V69.6283C56.9016 69.6283 61.1458 72.8273 66.2361 72.8273C71.3264 72.8273 71.1331 69.4982 71.1331 69.0406C71.1331 64.2106 56.7063 64.2106 56.7063 53.5034C56.7063 38.9465 77.7263 44.6896 77.7263 44.6896L77.4659 51.6101Z" fill="white"/>
</svg>
