<svg width="109" height="29" viewBox="0 0 109 29" fill="none" xmlns="http://www.w3.org/2000/svg">
<path d="M84.5399 9.96C84.5399 11.4356 84.651 12.4622 84.8732 13.04C85.1043 13.6178 85.5044 13.9067 86.0732 13.9067C86.491 13.9067 86.8066 13.8044 87.0199 13.6C87.2332 13.3867 87.3932 12.9556 87.4999 12.3067C87.6155 11.6489 87.6732 10.6667 87.6732 9.36V6.14667C87.6732 4.87556 87.5488 3.92889 87.2999 3.30667C87.051 2.68445 86.6421 2.37334 86.0732 2.37334C85.5044 2.37334 85.1043 2.68 84.8732 3.29334C84.651 3.89778 84.5399 5.00445 84.5399 6.61334V9.96ZM85.7932 16.28C85.0555 16.28 84.3888 16.2133 83.7932 16.08C83.2066 15.9467 82.6999 15.76 82.2732 15.52C81.8466 15.28 81.4732 14.9733 81.1532 14.6C80.8421 14.2267 80.5888 13.8267 80.3932 13.4C80.2066 12.9733 80.0555 12.4756 79.9399 11.9067C79.8243 11.3289 79.7443 10.7556 79.6999 10.1867C79.6555 9.60889 79.6332 8.96 79.6332 8.24C79.6332 7.17333 79.6866 6.24445 79.7932 5.45334C79.9088 4.66222 80.1177 3.92 80.4199 3.22667C80.7221 2.52445 81.1221 1.95556 81.6199 1.52C82.1266 1.08445 82.7755 0.742224 83.5666 0.493335C84.3666 0.244446 85.3088 0.120003 86.3932 0.120003C87.1399 0.120003 87.811 0.191114 88.4066 0.333336C89.0021 0.466669 89.5132 0.653335 89.9399 0.893335C90.3666 1.13334 90.7355 1.44445 91.0466 1.82667C91.3666 2.20889 91.6199 2.61778 91.8066 3.05334C92.0021 3.48 92.1577 3.98222 92.2732 4.56C92.3888 5.13778 92.4688 5.71111 92.5132 6.28C92.5577 6.84889 92.5799 7.49334 92.5799 8.21334C92.5799 9.28 92.5221 10.2089 92.4066 11C92.291 11.7911 92.0821 12.5333 91.7799 13.2267C91.4777 13.9111 91.0732 14.4711 90.5666 14.9067C90.0599 15.3333 89.4066 15.6711 88.6066 15.92C87.8155 16.16 86.8777 16.28 85.7932 16.28Z" fill="#373737"/>
<path d="M69.9159 10.8V16H65.4893V0.373333H67.2493C67.6759 0.373333 68.3115 0.355556 69.1559 0.320001C70.0004 0.275556 70.6982 0.253334 71.2493 0.253334C73.1693 0.253334 74.6004 0.675556 75.5426 1.52C76.4937 2.36444 76.9693 3.65778 76.9693 5.4C76.9693 6.43111 76.7426 7.34667 76.2893 8.14667C75.8448 8.94667 75.2537 9.58222 74.5159 10.0533C74.9159 10.1511 75.2582 10.3778 75.5426 10.7333C75.8359 11.0889 76.0626 11.5111 76.2226 12C76.3826 12.48 76.5204 12.9689 76.6359 13.4667C76.7604 13.9556 76.8982 14.44 77.0493 14.92C77.2093 15.4 77.3826 15.76 77.5693 16H72.6493C72.5515 15.8756 72.4759 15.5289 72.4226 14.96C72.3693 14.3822 72.2937 13.6933 72.1959 12.8933C72.1071 12.0844 71.9782 11.4089 71.8093 10.8667C71.7915 10.8667 71.7693 10.8667 71.7426 10.8667C71.5737 10.8667 71.3915 10.8667 71.1959 10.8667C71.0093 10.8578 70.8448 10.8489 70.7026 10.84C70.5604 10.8311 70.4093 10.8222 70.2493 10.8133C70.0982 10.8044 69.9871 10.8 69.9159 10.8ZM69.9159 8.32H70.3426C70.5648 8.32 70.7515 8.31111 70.9026 8.29333C71.0537 8.27556 71.2182 8.24445 71.3959 8.2C71.5826 8.14667 71.7337 8.06667 71.8493 7.96C71.9737 7.85333 72.0893 7.71556 72.1959 7.54667C72.3026 7.37778 72.3826 7.16 72.4359 6.89333C72.4893 6.62667 72.5159 6.31556 72.5159 5.96V4.90667C72.5159 4.13333 72.3115 3.59556 71.9026 3.29333C71.5026 2.98222 70.9248 2.82667 70.1693 2.82667H69.9159V8.32Z" fill="#373737"/>
<path d="M62.7185 16H53.2652V0.373337H62.5185L62.2519 3.52L57.6785 3.38667V6.4H61.2785V9.52L57.6785 9.25334V12.8L62.7185 12.6667V16Z" fill="#373737"/>
<path d="M37.0441 16H33.0307L34.2707 0.373337H40.5241L41.6974 5.61334L42.2307 8.26667L42.7374 5.62667L43.7774 0.373337H49.3507L50.4974 16H46.3507L45.6707 6.81334L45.5107 3.42667L43.4707 14.44H39.9907L37.5374 3.42667L37.4574 6.81334L37.0441 16Z" fill="#373737"/>
<path d="M26.4533 16C26.3467 15.8667 26.1156 15.3467 25.76 14.44C25.4133 13.5244 25.0045 12.4933 24.5333 11.3467C24.0711 10.1911 23.6622 9.31556 23.3067 8.72V16H18.8933V0.373337H23.3067V7.85334L26.6267 0.373337H31.0667L27.0933 7.70667C27.3511 7.88445 27.6933 8.36889 28.12 9.16C28.5467 9.95112 28.9467 10.7822 29.32 11.6533C29.6933 12.5244 30.08 13.4 30.48 14.28C30.88 15.1511 31.1733 15.7244 31.36 16H26.4533Z" fill="#373737"/>
<path d="M104.602 24.55H105.552L108.052 28H107.002L104.602 24.55ZM103.352 21H104.202V28H103.352V21ZM103.822 21.75V21H105.252C105.706 21 106.109 21.0867 106.462 21.26C106.822 21.4267 107.106 21.6667 107.312 21.98C107.526 22.2933 107.632 22.6667 107.632 23.1C107.632 23.5267 107.526 23.9 107.312 24.22C107.106 24.5333 106.822 24.7767 106.462 24.95C106.109 25.1167 105.706 25.2 105.252 25.2H103.822V24.45H105.252C105.552 24.45 105.816 24.3967 106.042 24.29C106.276 24.1833 106.456 24.03 106.582 23.83C106.716 23.63 106.782 23.3867 106.782 23.1C106.782 22.8133 106.716 22.57 106.582 22.37C106.456 22.17 106.276 22.0167 106.042 21.91C105.816 21.8033 105.552 21.75 105.252 21.75H103.822Z" fill="#373737"/>
<path d="M97.9243 28V27.2H101.454V28H97.9243ZM97.9243 21.8V21H101.454V21.8H97.9243ZM97.9243 24.6V23.8H101.254V24.6H97.9243ZM97.4543 21H98.3043V28H97.4543V21Z" fill="#373737"/>
<path d="M92.0262 28V27.2H95.5563V28H92.0262ZM92.0262 21.8V21H95.5563V21.8H92.0262ZM92.0262 24.6V23.8H95.3562V24.6H92.0262ZM91.5563 21H92.4062V28H91.5563V21Z" fill="#373737"/>
<path d="M88.7023 21H89.5523V28.35L84.2523 22.79V28H83.4023V20.65L88.7023 26.21V21Z" fill="#373737"/>
<path d="M80.5512 21H81.4012V28H80.5512V21Z" fill="#373737"/>
<path d="M75.6473 25.25V24.45H78.8973C78.8973 24.9367 78.8239 25.4 78.6773 25.84C78.5306 26.2733 78.3139 26.66 78.0273 27C77.7406 27.34 77.3873 27.61 76.9673 27.81C76.5539 28.0033 76.0806 28.1 75.5473 28.1C75.0406 28.1 74.5706 28.0133 74.1373 27.84C73.7039 27.66 73.3273 27.41 73.0073 27.09C72.6873 26.7633 72.4373 26.38 72.2573 25.94C72.0839 25.5 71.9973 25.02 71.9973 24.5C71.9973 23.98 72.0839 23.5 72.2573 23.06C72.4373 22.62 72.6873 22.24 73.0073 21.92C73.3273 21.5933 73.7039 21.3433 74.1373 21.17C74.5706 20.99 75.0406 20.9 75.5473 20.9C75.9806 20.9 76.3773 20.9567 76.7373 21.07C77.1039 21.1833 77.4306 21.35 77.7173 21.57C78.0106 21.79 78.2573 22.0633 78.4573 22.39L77.8573 22.94C77.6373 22.5667 77.3306 22.2767 76.9373 22.07C76.5439 21.8567 76.0806 21.75 75.5473 21.75C75.0539 21.75 74.6073 21.8667 74.2073 22.1C73.8073 22.3333 73.4873 22.6567 73.2473 23.07C73.0139 23.4767 72.8973 23.9533 72.8973 24.5C72.8973 25.04 73.0139 25.5167 73.2473 25.93C73.4873 26.3433 73.8073 26.6667 74.2073 26.9C74.6073 27.1333 75.0539 27.25 75.5473 27.25C75.8939 27.25 76.2039 27.2 76.4773 27.1C76.7573 26.9933 76.9973 26.8467 77.1973 26.66C77.3973 26.4733 77.5606 26.26 77.6873 26.02C77.8206 25.78 77.9173 25.5233 77.9773 25.25H75.6473Z" fill="#373737"/>
<path d="M69.5434 21H70.3934V28.35L65.0934 22.79V28H64.2434V20.65L69.5434 26.21V21Z" fill="#373737"/>
<path d="M58.8153 28V27.2H62.3453V28H58.8153ZM58.8153 21.8V21H62.3453V21.8H58.8153ZM58.8153 24.6V23.8H62.1453V24.6H58.8153ZM58.3453 21H59.1953V28H58.3453V21Z" fill="#373737"/>
<path d="M47.7504 21H48.6004V28H47.7504V21ZM49.8504 28H48.2204V27.15H49.8504C50.2437 27.15 50.6037 27.09 50.9304 26.97C51.2571 26.8433 51.5371 26.6667 51.7704 26.44C52.0037 26.2067 52.1837 25.9267 52.3104 25.6C52.4371 25.2733 52.5004 24.9067 52.5004 24.5C52.5004 24.0933 52.4371 23.7267 52.3104 23.4C52.1837 23.0733 52.0037 22.7967 51.7704 22.57C51.5371 22.3367 51.2571 22.16 50.9304 22.04C50.6037 21.9133 50.2437 21.85 49.8504 21.85H48.2204V21H49.8504C50.5304 21 51.1337 21.1467 51.6604 21.44C52.1871 21.7333 52.6004 22.1433 52.9004 22.67C53.2004 23.19 53.3504 23.8 53.3504 24.5C53.3504 25.2 53.2004 25.8133 52.9004 26.34C52.6004 26.86 52.1871 27.2667 51.6604 27.56C51.1337 27.8533 50.5304 28 49.8504 28Z" fill="#373737"/>
<path d="M44.8965 21H45.7465V28.35L40.4465 22.79V28H39.5965V20.65L44.8965 26.21V21Z" fill="#373737"/>
<path d="M34.1684 28V27.2H37.6984V28H34.1684ZM34.1684 21.8V21H37.6984V21.8H34.1684ZM34.1684 24.6V23.8H37.4984V24.6H34.1684ZM33.6984 21H34.5484V28H33.6984V21Z" fill="#373737"/>
<path d="M27.95 21.8V21H32.4V21.8H30.6V28H29.75V21.8H27.95Z" fill="#373737"/>
<path d="M25.7961 21H26.6461V28.35L21.3461 22.79V28H20.4961V20.65L25.7961 26.21V21Z" fill="#373737"/>
<path d="M12.6957 24.5C12.6957 25.0267 12.809 25.4967 13.0357 25.91C13.269 26.3233 13.5857 26.65 13.9857 26.89C14.3857 27.13 14.839 27.25 15.3457 27.25C15.859 27.25 16.3124 27.13 16.7057 26.89C17.1057 26.65 17.419 26.3233 17.6457 25.91C17.879 25.4967 17.9957 25.0267 17.9957 24.5C17.9957 23.9733 17.879 23.5033 17.6457 23.09C17.419 22.6767 17.1057 22.35 16.7057 22.11C16.3124 21.87 15.859 21.75 15.3457 21.75C14.839 21.75 14.3857 21.87 13.9857 22.11C13.5857 22.35 13.269 22.6767 13.0357 23.09C12.809 23.5033 12.6957 23.9733 12.6957 24.5ZM11.7957 24.5C11.7957 23.9867 11.8824 23.5133 12.0557 23.08C12.2357 22.64 12.4857 22.26 12.8057 21.94C13.1257 21.6133 13.5024 21.36 13.9357 21.18C14.369 20.9933 14.839 20.9 15.3457 20.9C15.859 20.9 16.329 20.9933 16.7557 21.18C17.189 21.36 17.5657 21.6133 17.8857 21.94C18.2057 22.26 18.4524 22.64 18.6257 23.08C18.8057 23.5133 18.8957 23.9867 18.8957 24.5C18.8957 25.0067 18.8057 25.48 18.6257 25.92C18.4524 26.36 18.2057 26.7433 17.8857 27.07C17.5657 27.39 17.189 27.6433 16.7557 27.83C16.329 28.01 15.859 28.1 15.3457 28.1C14.839 28.1 14.369 28.01 13.9357 27.83C13.5024 27.6433 13.1257 27.39 12.8057 27.07C12.4857 26.7433 12.2357 26.36 12.0557 25.92C11.8824 25.48 11.7957 25.0067 11.7957 24.5Z" fill="#373737"/>
<path d="M7.45 24.55H8.4L10.9 28H9.85L7.45 24.55ZM6.2 21H7.05V28H6.2V21ZM6.67 21.75V21H8.1C8.55333 21 8.95666 21.0867 9.31 21.26C9.67 21.4267 9.95333 21.6667 10.16 21.98C10.3733 22.2933 10.48 22.6667 10.48 23.1C10.48 23.5267 10.3733 23.9 10.16 24.22C9.95333 24.5333 9.67 24.7767 9.31 24.95C8.95666 25.1167 8.55333 25.2 8.1 25.2H6.67V24.45H8.1C8.4 24.45 8.66333 24.3967 8.89 24.29C9.12333 24.1833 9.30333 24.03 9.43 23.83C9.56333 23.63 9.63 23.3867 9.63 23.1C9.63 22.8133 9.56333 22.57 9.43 22.37C9.30333 22.17 9.12333 22.0167 8.89 21.91C8.66333 21.8033 8.4 21.75 8.1 21.75H6.67Z" fill="#373737"/>
<path d="M1.27 21.8V21H4.4V21.8H1.27ZM1.27 24.6V23.8H4.3V24.6H1.27ZM0.800003 21H1.65V28H0.800003V21Z" fill="#373737"/>
</svg>
