<svg width="108" height="29" viewBox="0 0 108 29" fill="none" xmlns="http://www.w3.org/2000/svg">
<path d="M83.7399 9.84C83.7399 11.3156 83.851 12.3422 84.0732 12.92C84.3043 13.4978 84.7044 13.7867 85.2732 13.7867C85.691 13.7867 86.0066 13.6844 86.2199 13.48C86.4332 13.2667 86.5932 12.8356 86.6999 12.1867C86.8155 11.5289 86.8732 10.5467 86.8732 9.24V6.02667C86.8732 4.75555 86.7488 3.80889 86.4999 3.18667C86.251 2.56444 85.8421 2.25333 85.2732 2.25333C84.7044 2.25333 84.3043 2.56 84.0732 3.17333C83.851 3.77778 83.7399 4.88444 83.7399 6.49333V9.84ZM84.9932 16.16C84.2555 16.16 83.5888 16.0933 82.9932 15.96C82.4066 15.8267 81.8999 15.64 81.4732 15.4C81.0466 15.16 80.6732 14.8533 80.3532 14.48C80.0421 14.1067 79.7888 13.7067 79.5932 13.28C79.4066 12.8533 79.2555 12.3556 79.1399 11.7867C79.0243 11.2089 78.9443 10.6356 78.8999 10.0667C78.8555 9.48889 78.8332 8.84 78.8332 8.12C78.8332 7.05333 78.8866 6.12444 78.9932 5.33333C79.1088 4.54222 79.3177 3.8 79.6199 3.10667C79.9221 2.40444 80.3221 1.83555 80.8199 1.4C81.3266 0.964444 81.9755 0.622221 82.7666 0.373332C83.5666 0.124444 84.5088 0 85.5932 0C86.3399 0 87.011 0.0711109 87.6066 0.213333C88.2021 0.346666 88.7132 0.533333 89.1399 0.773333C89.5666 1.01333 89.9355 1.32444 90.2466 1.70667C90.5666 2.08889 90.8199 2.49778 91.0066 2.93333C91.2021 3.36 91.3577 3.86222 91.4732 4.44C91.5888 5.01778 91.6688 5.59111 91.7132 6.16C91.7577 6.72889 91.7799 7.37333 91.7799 8.09333C91.7799 9.16 91.7221 10.0889 91.6066 10.88C91.491 11.6711 91.2821 12.4133 90.9799 13.1067C90.6777 13.7911 90.2732 14.3511 89.7666 14.7867C89.2599 15.2133 88.6066 15.5511 87.8066 15.8C87.0155 16.04 86.0777 16.16 84.9932 16.16Z" fill="white"/>
<path d="M69.1159 10.68V15.88H64.6893V0.253332H66.4493C66.8759 0.253332 67.5115 0.235555 68.3559 0.2C69.2004 0.155555 69.8982 0.133333 70.4493 0.133333C72.3693 0.133333 73.8004 0.555555 74.7426 1.4C75.6937 2.24444 76.1693 3.53778 76.1693 5.28C76.1693 6.31111 75.9426 7.22667 75.4893 8.02667C75.0448 8.82667 74.4537 9.46222 73.7159 9.93333C74.1159 10.0311 74.4582 10.2578 74.7426 10.6133C75.0359 10.9689 75.2626 11.3911 75.4226 11.88C75.5826 12.36 75.7204 12.8489 75.8359 13.3467C75.9604 13.8356 76.0982 14.32 76.2493 14.8C76.4093 15.28 76.5826 15.64 76.7693 15.88H71.8493C71.7515 15.7556 71.6759 15.4089 71.6226 14.84C71.5693 14.2622 71.4937 13.5733 71.3959 12.7733C71.3071 11.9644 71.1782 11.2889 71.0093 10.7467C70.9915 10.7467 70.9693 10.7467 70.9426 10.7467C70.7737 10.7467 70.5915 10.7467 70.3959 10.7467C70.2093 10.7378 70.0448 10.7289 69.9026 10.72C69.7604 10.7111 69.6093 10.7022 69.4493 10.6933C69.2982 10.6844 69.1871 10.68 69.1159 10.68ZM69.1159 8.2H69.5426C69.7648 8.2 69.9515 8.19111 70.1026 8.17333C70.2537 8.15555 70.4182 8.12444 70.5959 8.08C70.7826 8.02667 70.9337 7.94667 71.0493 7.84C71.1737 7.73333 71.2893 7.59556 71.3959 7.42667C71.5026 7.25778 71.5826 7.04 71.6359 6.77333C71.6893 6.50667 71.7159 6.19556 71.7159 5.84V4.78667C71.7159 4.01333 71.5115 3.47555 71.1026 3.17333C70.7026 2.86222 70.1248 2.70667 69.3693 2.70667H69.1159V8.2Z" fill="white"/>
<path d="M61.9185 15.88H52.4652V0.253332H61.7185L61.4519 3.4L56.8785 3.26667V6.28H60.4785V9.4L56.8785 9.13333V12.68L61.9185 12.5467V15.88Z" fill="white"/>
<path d="M36.2441 15.88H32.2307L33.4707 0.253332H39.7241L40.8974 5.49333L41.4307 8.14667L41.9374 5.50667L42.9774 0.253332H48.5507L49.6974 15.88H45.5507L44.8707 6.69333L44.7107 3.30667L42.6707 14.32H39.1907L36.7374 3.30667L36.6574 6.69333L36.2441 15.88Z" fill="white"/>
<path d="M25.6533 15.88C25.5467 15.7467 25.3156 15.2267 24.96 14.32C24.6133 13.4044 24.2044 12.3733 23.7333 11.2267C23.2711 10.0711 22.8622 9.19555 22.5067 8.6V15.88H18.0933V0.253332H22.5067V7.73333L25.8267 0.253332H30.2667L26.2933 7.58667C26.5511 7.76444 26.8933 8.24889 27.32 9.04C27.7467 9.83111 28.1467 10.6622 28.52 11.5333C28.8933 12.4044 29.28 13.28 29.68 14.16C30.08 15.0311 30.3733 15.6044 30.56 15.88H25.6533Z" fill="white"/>
<path d="M103.802 24.43H104.752L107.252 27.88H106.202L103.802 24.43ZM102.552 20.88H103.402V27.88H102.552V20.88ZM103.022 21.63V20.88H104.452C104.906 20.88 105.309 20.9667 105.662 21.14C106.022 21.3067 106.306 21.5467 106.512 21.86C106.726 22.1733 106.832 22.5467 106.832 22.98C106.832 23.4067 106.726 23.78 106.512 24.1C106.306 24.4133 106.022 24.6567 105.662 24.83C105.309 24.9967 104.906 25.08 104.452 25.08H103.022V24.33H104.452C104.752 24.33 105.016 24.2767 105.242 24.17C105.476 24.0633 105.656 23.91 105.782 23.71C105.916 23.51 105.982 23.2667 105.982 22.98C105.982 22.6933 105.916 22.45 105.782 22.25C105.656 22.05 105.476 21.8967 105.242 21.79C105.016 21.6833 104.752 21.63 104.452 21.63H103.022Z" fill="white"/>
<path d="M97.1243 27.88V27.08H100.654V27.88H97.1243ZM97.1243 21.68V20.88H100.654V21.68H97.1243ZM97.1243 24.48V23.68H100.454V24.48H97.1243ZM96.6543 20.88H97.5043V27.88H96.6543V20.88Z" fill="white"/>
<path d="M91.2262 27.88V27.08H94.7562V27.88H91.2262ZM91.2262 21.68V20.88H94.7562V21.68H91.2262ZM91.2262 24.48V23.68H94.5562V24.48H91.2262ZM90.7562 20.88H91.6062V27.88H90.7562V20.88Z" fill="white"/>
<path d="M87.9023 20.88H88.7523V28.23L83.4523 22.67V27.88H82.6023V20.53L87.9023 26.09V20.88Z" fill="white"/>
<path d="M79.7512 20.88H80.6012V27.88H79.7512V20.88Z" fill="white"/>
<path d="M74.8473 25.13V24.33H78.0973C78.0973 24.8167 78.0239 25.28 77.8773 25.72C77.7306 26.1533 77.5139 26.54 77.2273 26.88C76.9406 27.22 76.5873 27.49 76.1673 27.69C75.7539 27.8833 75.2806 27.98 74.7473 27.98C74.2406 27.98 73.7706 27.8933 73.3373 27.72C72.9039 27.54 72.5273 27.29 72.2073 26.97C71.8873 26.6433 71.6373 26.26 71.4573 25.82C71.2839 25.38 71.1973 24.9 71.1973 24.38C71.1973 23.86 71.2839 23.38 71.4573 22.94C71.6373 22.5 71.8873 22.12 72.2073 21.8C72.5273 21.4733 72.9039 21.2233 73.3373 21.05C73.7706 20.87 74.2406 20.78 74.7473 20.78C75.1806 20.78 75.5773 20.8367 75.9373 20.95C76.3039 21.0633 76.6306 21.23 76.9173 21.45C77.2106 21.67 77.4573 21.9433 77.6573 22.27L77.0573 22.82C76.8373 22.4467 76.5306 22.1567 76.1373 21.95C75.7439 21.7367 75.2806 21.63 74.7473 21.63C74.2539 21.63 73.8073 21.7467 73.4073 21.98C73.0073 22.2133 72.6873 22.5367 72.4473 22.95C72.2139 23.3567 72.0973 23.8333 72.0973 24.38C72.0973 24.92 72.2139 25.3967 72.4473 25.81C72.6873 26.2233 73.0073 26.5467 73.4073 26.78C73.8073 27.0133 74.2539 27.13 74.7473 27.13C75.0939 27.13 75.4039 27.08 75.6773 26.98C75.9573 26.8733 76.1973 26.7267 76.3973 26.54C76.5973 26.3533 76.7606 26.14 76.8873 25.9C77.0206 25.66 77.1173 25.4033 77.1773 25.13H74.8473Z" fill="white"/>
<path d="M68.7434 20.88H69.5934V28.23L64.2934 22.67V27.88H63.4434V20.53L68.7434 26.09V20.88Z" fill="white"/>
<path d="M58.0153 27.88V27.08H61.5453V27.88H58.0153ZM58.0153 21.68V20.88H61.5453V21.68H58.0153ZM58.0153 24.48V23.68H61.3453V24.48H58.0153ZM57.5453 20.88H58.3953V27.88H57.5453V20.88Z" fill="white"/>
<path d="M46.9504 20.88H47.8004V27.88H46.9504V20.88ZM49.0504 27.88H47.4204V27.03H49.0504C49.4437 27.03 49.8037 26.97 50.1304 26.85C50.4571 26.7233 50.7371 26.5467 50.9704 26.32C51.2037 26.0867 51.3837 25.8067 51.5104 25.48C51.6371 25.1533 51.7004 24.7867 51.7004 24.38C51.7004 23.9733 51.6371 23.6067 51.5104 23.28C51.3837 22.9533 51.2037 22.6767 50.9704 22.45C50.7371 22.2167 50.4571 22.04 50.1304 21.92C49.8037 21.7933 49.4437 21.73 49.0504 21.73H47.4204V20.88H49.0504C49.7304 20.88 50.3337 21.0267 50.8604 21.32C51.3871 21.6133 51.8004 22.0233 52.1004 22.55C52.4004 23.07 52.5504 23.68 52.5504 24.38C52.5504 25.08 52.4004 25.6933 52.1004 26.22C51.8004 26.74 51.3871 27.1467 50.8604 27.44C50.3337 27.7333 49.7304 27.88 49.0504 27.88Z" fill="white"/>
<path d="M44.0965 20.88H44.9465V28.23L39.6465 22.67V27.88H38.7965V20.53L44.0965 26.09V20.88Z" fill="white"/>
<path d="M33.3684 27.88V27.08H36.8984V27.88H33.3684ZM33.3684 21.68V20.88H36.8984V21.68H33.3684ZM33.3684 24.48V23.68H36.6984V24.48H33.3684ZM32.8984 20.88H33.7484V27.88H32.8984V20.88Z" fill="white"/>
<path d="M27.15 21.68V20.88H31.6V21.68H29.8V27.88H28.95V21.68H27.15Z" fill="white"/>
<path d="M24.9961 20.88H25.8461V28.23L20.5461 22.67V27.88H19.6961V20.53L24.9961 26.09V20.88Z" fill="white"/>
<path d="M11.8957 24.38C11.8957 24.9067 12.009 25.3767 12.2357 25.79C12.469 26.2033 12.7857 26.53 13.1857 26.77C13.5857 27.01 14.039 27.13 14.5457 27.13C15.059 27.13 15.5124 27.01 15.9057 26.77C16.3057 26.53 16.619 26.2033 16.8457 25.79C17.079 25.3767 17.1957 24.9067 17.1957 24.38C17.1957 23.8533 17.079 23.3833 16.8457 22.97C16.619 22.5567 16.3057 22.23 15.9057 21.99C15.5124 21.75 15.059 21.63 14.5457 21.63C14.039 21.63 13.5857 21.75 13.1857 21.99C12.7857 22.23 12.469 22.5567 12.2357 22.97C12.009 23.3833 11.8957 23.8533 11.8957 24.38ZM10.9957 24.38C10.9957 23.8667 11.0824 23.3933 11.2557 22.96C11.4357 22.52 11.6857 22.14 12.0057 21.82C12.3257 21.4933 12.7024 21.24 13.1357 21.06C13.569 20.8733 14.039 20.78 14.5457 20.78C15.059 20.78 15.529 20.8733 15.9557 21.06C16.389 21.24 16.7657 21.4933 17.0857 21.82C17.4057 22.14 17.6524 22.52 17.8257 22.96C18.0057 23.3933 18.0957 23.8667 18.0957 24.38C18.0957 24.8867 18.0057 25.36 17.8257 25.8C17.6524 26.24 17.4057 26.6233 17.0857 26.95C16.7657 27.27 16.389 27.5233 15.9557 27.71C15.529 27.89 15.059 27.98 14.5457 27.98C14.039 27.98 13.569 27.89 13.1357 27.71C12.7024 27.5233 12.3257 27.27 12.0057 26.95C11.6857 26.6233 11.4357 26.24 11.2557 25.8C11.0824 25.36 10.9957 24.8867 10.9957 24.38Z" fill="white"/>
<path d="M6.64999 24.43H7.59999L10.1 27.88H9.04999L6.64999 24.43ZM5.39999 20.88H6.24999V27.88H5.39999V20.88ZM5.86999 21.63V20.88H7.29999C7.75333 20.88 8.15666 20.9667 8.50999 21.14C8.86999 21.3067 9.15333 21.5467 9.35999 21.86C9.57333 22.1733 9.67999 22.5467 9.67999 22.98C9.67999 23.4067 9.57333 23.78 9.35999 24.1C9.15333 24.4133 8.86999 24.6567 8.50999 24.83C8.15666 24.9967 7.75333 25.08 7.29999 25.08H5.86999V24.33H7.29999C7.59999 24.33 7.86333 24.2767 8.08999 24.17C8.32333 24.0633 8.50333 23.91 8.62999 23.71C8.76333 23.51 8.82999 23.2667 8.82999 22.98C8.82999 22.6933 8.76333 22.45 8.62999 22.25C8.50333 22.05 8.32333 21.8967 8.08999 21.79C7.86333 21.6833 7.59999 21.63 7.29999 21.63H5.86999Z" fill="white"/>
<path d="M0.47 21.68V20.88H3.6V21.68H0.47ZM0.47 24.48V23.68H3.5V24.48H0.47ZM0 20.88H0.85V27.88H0V20.88Z" fill="white"/>
</svg>
