<svg width="96" height="96" viewBox="0 0 96 96" fill="none" xmlns="http://www.w3.org/2000/svg">
<path d="M72.9537 35.6884C72.113 35.4011 71.2651 35.135 70.4109 34.8903C70.5544 34.3063 70.6865 33.7295 70.8038 33.1628C72.7288 23.8564 71.4703 16.3591 67.1719 13.8906C63.0507 11.5241 56.3107 13.9917 49.5037 19.8916C48.8328 20.4741 48.1769 21.0733 47.5364 21.6888C47.1077 21.2795 46.6713 20.8782 46.2277 20.485C39.0936 14.1767 31.9429 11.518 27.6491 13.9936C23.5315 16.3674 22.3123 23.4154 24.0453 32.2352C24.2178 33.1087 24.4124 33.9777 24.6292 34.8414C23.617 35.1278 22.6403 35.4327 21.7056 35.7573C13.3414 38.6615 8 43.2128 8 47.9337C8 52.8096 13.7343 57.7001 22.4459 60.6656C23.1522 60.905 23.8643 61.1269 24.5817 61.331C24.3487 62.2611 24.1418 63.1976 23.9614 64.1393C22.3092 72.8061 23.5994 79.6876 27.7059 82.0463C31.9472 84.4823 39.0658 81.9787 45.9971 75.9443C46.5592 75.4537 47.1089 74.9492 47.6457 74.4313C48.3392 75.0977 49.0513 75.7448 49.7811 76.3718C56.4955 82.1256 63.1266 84.4491 67.229 82.0838C71.4663 79.6409 72.8436 72.2483 71.0556 63.2542C70.9147 62.5496 70.7568 61.8485 70.5819 61.1515C71.0818 61.0039 71.5725 60.8521 72.0508 60.6942C81.1074 57.706 87 52.8747 87 47.9337C87 43.1956 81.486 38.6136 72.9537 35.6884ZM70.9895 57.5041C70.5575 57.6464 70.1144 57.7837 69.6626 57.9174C68.6627 54.7651 67.3136 51.4134 65.6623 47.95C67.238 44.5694 68.5353 41.2603 69.5071 38.1286C70.3153 38.3616 71.0994 38.6071 71.8555 38.8662C79.166 41.3728 83.6252 45.0783 83.6252 47.9337C83.6252 50.9751 78.8093 54.9234 70.9895 57.5041ZM67.745 63.907C68.5356 67.8839 68.6482 71.4797 68.1246 74.2908C67.6543 76.8168 66.7081 78.5007 65.5379 79.1753C63.0485 80.6105 57.7243 78.745 51.9823 73.824C51.3035 73.2411 50.6411 72.6395 49.9959 72.02C52.2221 69.5954 54.4468 66.7769 56.618 63.6464C60.4372 63.3089 64.0453 62.757 67.3173 62.0037C67.4749 62.6347 67.6175 63.2693 67.745 63.907ZM34.9328 78.9272C32.5005 79.7825 30.5631 79.8071 29.392 79.1347C26.9001 77.7034 25.8642 72.1779 27.2772 64.7663C27.4452 63.8905 27.6375 63.0195 27.854 62.1543C31.0899 62.8673 34.6718 63.3799 38.4999 63.6891C40.6859 66.7523 42.9748 69.5678 45.2815 72.0332C44.7913 72.5056 44.2895 72.9659 43.7765 73.4137C40.7112 76.082 37.6398 77.9751 34.9328 78.9272ZM23.5377 57.4853C19.6855 56.1739 16.5042 54.4698 14.3237 52.6101C12.3641 50.9391 11.3751 49.2799 11.3751 47.9337C11.3751 45.0688 15.6636 41.4146 22.8165 38.9311C23.6846 38.6299 24.5931 38.3456 25.5358 38.0788C26.5246 41.2812 27.8213 44.6296 29.3862 48.0155C27.8009 51.4515 26.4857 54.8533 25.4874 58.0935C24.8326 57.9067 24.1825 57.7039 23.5377 57.4853ZM27.3575 31.5895C25.8728 24.0332 26.8588 18.3331 29.3402 16.9024C31.983 15.3787 37.8271 17.5512 43.987 22.9984C44.3886 23.3544 44.7838 23.7176 45.1723 24.0879C42.877 26.5425 40.6091 29.3371 38.4425 32.3821C34.727 32.7251 31.1705 33.2759 27.9006 34.0138C27.6991 33.2105 27.518 32.4019 27.3575 31.5895ZM61.4346 39.9698C60.6622 38.6412 59.8612 37.3293 59.0321 36.0351C61.5527 36.3526 63.9678 36.7739 66.2357 37.289C65.5549 39.4624 64.7063 41.7346 63.7073 44.0641C62.9772 42.6844 62.2194 41.3194 61.4346 39.9698ZM47.538 26.49C49.0945 28.1695 50.6535 30.0446 52.1869 32.0791C49.0763 31.9328 45.9605 31.9322 42.8498 32.0773C44.3847 30.0615 45.957 28.1889 47.538 26.49ZM33.5522 39.9929C32.7771 41.3316 32.0335 42.6881 31.322 44.0614C30.3394 41.7401 29.4985 39.4575 28.8119 37.2533C31.0658 36.7512 33.4695 36.3406 35.974 36.0289C35.1357 37.3311 34.3282 38.653 33.5522 39.9929ZM36.0459 60.0777C33.4584 59.79 31.0186 59.4006 28.7653 58.9119C29.4627 56.6684 30.3221 54.3373 31.326 51.9662C32.0403 53.3405 32.787 54.6979 33.5654 56.0372C34.3659 57.414 35.1948 58.7626 36.0459 60.0777ZM47.6312 69.6142C46.0314 67.8956 44.436 65.9941 42.8779 63.9491C44.3906 64.0081 45.9327 64.0382 47.5 64.0382C49.1102 64.0382 50.702 64.0023 52.2687 63.9328C50.7304 66.0147 49.1772 67.9189 47.6312 69.6142ZM63.7391 51.8452C64.7951 54.2423 65.6851 56.5612 66.3918 58.7663C64.1014 59.2869 61.6283 59.7061 59.0226 60.0174C59.8576 58.6991 60.6661 57.3644 61.4478 56.0141C62.2426 54.6416 63.0065 53.2516 63.7391 51.8452ZM58.5245 54.3349C57.3278 56.4052 56.0639 58.4362 54.7347 60.4246C52.3269 60.5945 49.9138 60.6788 47.5 60.6776C45.0414 60.6776 42.6501 60.6013 40.3474 60.4526C38.9835 58.4687 37.6954 56.4342 36.486 54.3533C35.2822 52.2834 34.1581 50.1688 33.1155 48.014C34.1555 45.8586 35.2765 43.743 36.4761 41.6715L36.4758 41.6719C37.675 39.5999 38.9528 37.574 40.3064 35.5987C42.6557 35.4216 45.0649 35.3294 47.4997 35.3294C49.9456 35.3294 52.3582 35.4226 54.7069 35.6008C56.0468 37.5732 57.3165 39.5921 58.5134 41.6537C59.717 43.7206 60.8529 45.8259 61.919 47.9663C60.8638 50.1286 59.7316 52.2528 58.5245 54.3349ZM65.4864 16.8023C68.1317 18.3217 69.1605 24.449 67.4984 32.4842C67.3923 32.9968 67.2731 33.519 67.1435 34.0485C63.8657 33.2949 60.3066 32.7346 56.5804 32.3864C54.4097 29.3079 52.1604 26.509 49.9024 24.086C50.4942 23.5179 51.1 22.9646 51.7194 22.4264C57.5518 17.3717 63.0028 15.3759 65.4864 16.8023ZM47.5 40.9081C51.396 40.9081 54.5545 44.0537 54.5545 47.9337C54.5545 51.8138 51.396 54.9593 47.5 54.9593C43.604 54.9593 40.4455 51.8138 40.4455 47.9337C40.4455 44.0537 43.604 40.9081 47.5 40.9081Z" fill="#00D8FF"/>
</svg>
