<svg width="96" height="96" viewBox="0 0 96 96" fill="none" xmlns="http://www.w3.org/2000/svg">
<path d="M48 10C37.9218 10 28.2563 14.0036 21.1299 21.1299C14.0036 28.2563 10 37.9218 10 48C10 58.0782 14.0036 67.7437 21.1299 74.8701C28.2563 81.9964 37.9218 86 48 86C58.0782 86 67.7437 81.9964 74.8701 74.8701C81.9964 67.7437 86 58.0782 86 48C86 37.9218 81.9964 28.2563 74.8701 21.1299C67.7437 14.0036 58.0782 10 48 10Z" fill="white"/>
<path d="M16.002 48C16.002 60.672 23.362 71.612 34.038 76.8L18.77 34.976C16.996 38.958 16.002 43.352 16.002 48ZM69.608 46.388C69.608 42.434 67.482 39.688 66.268 37.564C64.642 34.906 63.116 32.69 63.116 30.06C63.116 27.13 66.058 24.38 69.198 24.38C69.34 24.38 69.468 24.392 69.61 24.396C63.922 19.168 56.336 16 48.002 16C37.224 16 27.696 21.332 21.898 29.498C22.354 29.646 22.512 29.576 23.12 29.576C26.458 29.576 31.648 29.176 31.648 29.176C33.368 29.062 33.578 31.6 31.846 31.808C31.846 31.808 30.118 32.018 28.19 32.112L40.052 67.668L47.052 46.666L41.846 32.17C40.124 32.078 38.488 31.866 38.488 31.866C36.764 31.754 36.964 29.116 38.684 29.234C38.684 29.234 43.98 29.634 47.118 29.634C50.468 29.634 55.646 29.234 55.646 29.234C57.368 29.12 57.576 31.658 55.854 31.866C55.854 31.866 54.114 32.076 52.19 32.17L63.972 67.39L67.17 56.738C68.798 52.578 69.608 49.138 69.608 46.388ZM48.562 50.792L38.962 78.696C41.834 79.548 44.862 80 48.002 80C51.724 80 55.3 79.352 58.634 78.186C58.554 78.044 58.464 77.9 58.398 77.746L48.562 50.792ZM76.086 32.636C76.228 33.656 76.302 34.754 76.302 35.926C76.302 39.182 75.69 42.828 73.864 47.4L64.094 75.67C73.61 70.126 80 59.804 80 48C80 42.438 78.578 37.208 76.086 32.636Z" fill="#01579B"/>
<path d="M8 48C8 70.048 25.94 88 47.998 88C70.06 88 88 70.048 88 48C88 25.952 70.06 8 48 8C25.94 8 8 25.952 8 48ZM11.99 48C11.99 28.152 28.138 12.002 47.998 12.002C67.858 12.002 84.01 28.152 84.01 48C84.01 67.848 67.858 84.002 48 84.002C28.144 84.002 11.99 67.848 11.99 48Z" fill="#01579B"/>
</svg>
